# 3ds Max Wavefront OBJ Exporter v0.97b - (c)2007 guruware
# File Created: 30.04.2017 01:43:58

#
# object Plane013
#

v  0.0000 0.0001 -0.0001
v  69.2526 471.3841 -67.0939
v  -80.8526 490.9061 -60.0427
v  -84.4271 8.2520 -29.1682
v  121.1572 659.2239 -164.1908
v  -23.5548 703.5291 -180.4801
v  184.3243 764.2264 -317.3223
v  240.0173 777.6939 -474.7157
v  107.0445 846.1618 -512.1531
v  45.0055 833.3146 -356.9522
v  326.3846 793.1174 -720.3429
v  478.0289 667.0154 -1194.9528
v  317.3394 751.2753 -1051.8239
v  201.3898 861.4523 -760.1733
v  -196.3692 497.5188 -156.7603
v  -123.3976 243.7485 -125.6218
v  -153.2227 684.8799 -258.1248
v  -30.8606 790.7827 -570.3511
v  -98.8137 789.4037 -415.5242
v  67.0528 793.9045 -811.4049
v  84.4272 -8.2517 29.1680
v  184.1411 465.0058 31.5080
v  250.4615 676.7468 -85.8123
v  328.0445 805.6505 -259.1672
v  377.3914 819.7383 -418.7531
v  459.0444 836.2692 -671.1582
v  529.0062 730.5872 -978.6967
v  214.3111 210.7410 -8.9494
v  333.6181 445.7181 26.3411
v  394.8099 631.3156 -68.7892
v  467.2643 734.0756 -219.9542
v  509.8331 737.9356 -383.5509
v  582.3619 743.5385 -633.3746
v  0.0001 0.0002 0.0001
v  152.9900 456.1738 0.0000
v  98.8303 470.6859 -140.7782
v  0.0001 0.0001 -89.7040
v  287.6274 627.2833 0.0000
v  260.5475 662.5745 -145.5715
v  466.3976 707.9436 -0.0000
v  633.5640 697.4006 0.0000
v  633.5640 753.4709 -143.6221
v  466.3976 764.0139 -150.3648
v  893.4611 675.4135 -0.0000
v  1368.2792 478.6906 -0.0000
v  1193.1017 579.0646 -112.4483
v  898.3479 731.2704 -136.8793
v  151.0581 456.6914 -281.5563
v  110.3392 214.6140 -179.4081
v  286.6615 626.2804 -291.1430
v  633.5641 683.8694 -287.2442
v  466.3976 705.4202 -300.7296
v  891.3223 650.9678 -273.7586
v  0.0001 0.0001 89.7041
v  98.8303 470.6859 140.7782
v  260.5475 662.5745 145.5716
v  466.3976 764.0139 150.3648
v  633.5640 753.4709 143.6220
v  898.3479 731.2704 136.8794
v  1193.1017 579.0646 112.4482
v  110.3392 214.6140 179.4082
v  151.0581 456.6914 281.5564
v  286.6615 626.2804 291.1430
v  466.3976 705.4202 300.7296
v  633.5640 683.8694 287.2442
v  891.3223 650.9678 273.7586
v  43.2769 469.5163 95.8229
v  77.1066 492.6246 -50.0673
v  50.9333 10.2305 -73.1297
v  121.6491 655.9478 176.4875
v  176.3486 703.6755 42.6970
v  251.3404 759.2300 281.2628
v  387.6491 771.1767 377.8700
v  459.3898 842.7548 261.6761
v  326.9096 831.5771 159.5721
v  600.5499 784.2416 527.9781
v  1016.8895 653.9903 799.7281
v  922.2725 742.2326 608.2402
v  672.4303 855.4933 420.1069
v  201.4978 501.8779 -134.8216
v  153.0848 246.4752 -78.9696
v  286.3561 688.0348 -61.4373
v  553.1106 790.6144 143.4836
v  422.5334 791.0424 36.0577
v  758.5430 791.1108 303.1739
v  -50.9332 -10.2300 73.1299
v  -82.7588 460.5146 179.4670
v  11.0400 670.4722 280.0468
v  156.1578 797.2806 404.7371
v  296.2950 809.9962 495.8473
v  516.9924 824.2727 643.2842
v  794.5782 716.5844 791.5835
v  -50.6480 205.5541 213.5497
v  -118.2329 437.6579 324.2470
v  -44.2609 621.6282 413.2621
v  81.0300 722.4492 526.3877
v  226.9209 725.0971 611.8260
v  447.6672 728.6695 749.5286
v  -0.0001 0.0002 0.0002
v  -92.5223 464.3458 85.5752
v  46.9538 477.9233 143.2332
v  64.7364 1.4584 62.0798
v  -180.6562 643.0788 173.2828
v  -55.8448 679.0723 252.6328
v  -301.9486 734.1362 297.6274
v  -417.8726 733.4766 418.5281
v  -312.5918 791.7764 514.9036
v  -191.8019 792.5456 398.6693
v  -598.2650 726.8658 606.7960
v  -932.3932 558.5283 959.1780
v  -727.1613 650.2057 905.4951
v  -501.2363 785.1313 702.0344
v  112.0188 469.3252 279.0076
v  59.4117 223.6385 192.0345
v  30.0909 646.7534 374.1269
v  -210.9722 724.6400 618.0436
v  -84.9956 736.5059 505.8830
v  -399.9354 706.7897 796.0266
v  -64.7366 -1.4580 -62.0795
v  -156.2361 473.3466 -51.6178
v  -265.9530 674.3397 51.1474
v  -408.8284 787.6572 190.5496
v  -519.8864 787.1072 316.1165
v  -698.7987 780.6814 512.5800
v  -889.4617 646.5499 749.8557
v  -199.5341 217.8058 -56.2840
v  -294.3610 460.1717 -110.6942
v  -390.1257 637.2882 -28.8438
v  -519.0488 726.7291 89.6435
v  -625.5613 715.3015 220.4692
v  -795.0604 697.8897 417.1177
v  0.0001 0.0001 0.0002
v  50.2660 435.4487 198.3893
v  170.5710 458.3906 109.1548
v  86.1309 1.4583 -25.0234
v  90.6687 589.8838 346.4538
v  223.4753 630.4216 284.0925
v  141.8762 649.3994 526.1775
v  188.3291 619.6681 684.3353
v  327.1633 677.6921 650.7280
v  287.1845 707.5330 490.6891
v  260.4573 567.8864 929.5822
v  389.6262 317.7939 1359.6072
v  450.4028 439.4969 1172.7882
v  394.1769 625.0259 902.4902
v  320.0766 440.7621 118.0649
v  206.6107 203.3599 79.8622
v  369.9282 593.7316 264.2010
v  463.9059 610.8979 602.6483
v  430.5845 651.7815 441.9962
v  522.3076 548.3031 848.3613
v  -86.1307 -1.4580 25.0237
v  -99.7699 453.8138 187.6970
v  -56.0703 625.6890 365.3089
v  -1.5658 702.6447 574.5798
v  51.3613 673.0229 730.8567
v  131.3232 620.5758 978.8571
v  234.4648 435.8412 1235.5247
v  -137.9124 197.5272 179.9564
v  -220.6051 431.6086 275.1491
v  -189.1630 584.2664 426.6338
v  -146.9161 642.0046 609.7775
v  -87.6981 601.5595 762.9059
v  -3.3998 539.4031 1001.0951
v  -0.0000 0.0002 -0.0000
v  -74.1490 465.6501 -95.7726
v  -118.9800 484.4530 47.7510
v  -56.1636 5.4001 69.7375
v  -161.7311 646.1840 -180.2864
v  -228.5005 688.0143 -50.0485
v  -292.2261 740.0480 -292.6495
v  -422.5840 742.2566 -397.8050
v  -507.0703 806.7084 -286.0946
v  -380.9341 804.9058 -175.6972
v  -625.7966 740.1208 -561.2981
v  -1012.2305 580.4030 -860.1477
v  -937.3704 673.7626 -662.4443
v  -709.8629 804.3257 -457.9036
v  -248.8859 482.9673 124.3300
v  -176.8926 232.7869 70.2879
v  -343.3648 662.6383 46.6598
v  -603.7385 746.0803 -174.5099
v  -480.7568 755.6395 -58.8596
v  -797.9111 732.1072 -347.1525
v  56.1635 -5.3997 -69.7375
v  57.3018 467.5041 -171.1359
v  -46.2166 670.4883 -276.3882
v  -192.6480 786.8027 -409.4897
v  -327.2275 789.4172 -509.4033
v  -538.4633 787.8463 -670.7285
v  -796.5632 660.2245 -837.2827
v  47.7614 211.1873 -208.6622
v  103.6777 449.0696 -313.4438
v  21.2030 627.5864 -406.0196
v  -104.1846 719.4334 -526.4445
v  -244.0528 711.4978 -621.1272
v  -455.1118 699.1483 -772.8021
v  -0.0001 0.0001 -0.0000
v  -239.9007 394.3833 -135.6829
v  -252.9641 432.4721 10.4026
v  -36.6800 5.7814 81.6577
v  -398.1153 520.7611 -215.6987
v  -441.8283 571.5120 -79.0116
v  -574.5323 548.1638 -296.8836
v  -719.7521 491.4204 -358.0974
v  -791.3579 554.3988 -236.9466
v  -648.8951 611.5768 -169.5948
v  -944.2432 397.8387 -452.3109
v  -1318.4170 76.8727 -597.6619
v  -1232.7351 229.1675 -446.4282
v  -1017.3589 458.8146 -339.1038
v  -353.4412 413.5642 121.2580
v  -220.1066 186.4025 85.0198
v  -516.0795 538.8335 49.8648
v  -834.0977 496.9683 -94.3047
v  -696.9205 565.1277 -22.6975
v  -1048.6786 392.6568 -198.1213
v  36.6797 -5.7812 -81.6578
v  -137.8363 414.3261 -245.8986
v  -322.7806 552.7482 -344.0395
v  -525.9274 592.1952 -443.3495
v  -673.9043 535.8864 -498.4254
v  -905.4194 441.1712 -588.3066
v  -1140.7755 214.6732 -651.1519
v  -73.3874 163.2772 -241.6112
v  -123.1856 377.2724 -391.3444
v  -277.9840 501.3059 -480.1910
v  -450.9850 526.3645 -570.2067
v  -599.1906 459.9433 -617.2622
v  -824.7998 357.3701 -696.5271
v  26.5664 401.6349 -263.5984
v  -121.4777 423.1301 -239.4478
v  -88.3413 -4.0316 -15.0463
v  49.9460 532.5967 -435.9588
v  -98.1163 567.0452 -443.7499
v  80.9891 564.9424 -626.8906
v  110.0173 512.1501 -783.1791
v  -31.4229 559.8550 -821.7811
v  -67.0913 612.3442 -666.6235
v  155.1479 424.6677 -1024.7157
v  237.5993 113.6231 -1425.4716
v  96.4401 250.1736 -1303.6736
v  21.1967 471.2239 -1066.7802
v  -251.0479 389.9732 -309.1205
v  -157.5223 171.1139 -190.5988
v  -236.9416 518.7892 -483.6142
v  -172.8630 486.1702 -827.8568
v  -215.1717 548.9890 -676.6793
v  -114.8231 389.2964 -1062.2721
v  88.3412 4.0317 15.0461
v  155.8011 435.7842 -192.2219
v  188.6035 580.1302 -394.9162
v  229.0695 625.8601 -616.1818
v  251.4574 572.7648 -773.6013
v  290.7963 483.5276 -1020.8623
v  317.9199 260.2812 -1265.9513
v  195.8427 187.2404 -130.4141
v  303.5098 415.2815 -214.6689
v  336.4981 544.9592 -385.9466
v  377.1500 576.0208 -575.7958
v  392.8975 511.9897 -731.4972
v  424.3762 413.9038 -970.4364
# 262 vertices

vn -0.3181 0.0838 0.9444
vn -0.2718 0.3657 0.8902
vn -0.2997 0.3080 0.9030
vn -0.4373 0.0396 0.8985
vn -0.1761 0.6878 0.7042
vn -0.1768 0.6872 0.7047
vn -0.0297 0.9359 0.3509
vn 0.0627 0.9931 0.0995
vn 0.0246 0.9972 0.0700
vn -0.0425 0.9471 0.3180
vn 0.1268 0.9880 -0.0876
vn 0.1647 0.9651 -0.2038
vn 0.3062 0.9354 -0.1768
vn 0.0599 0.9912 -0.1179
vn -0.6229 0.3198 0.7140
vn -0.8782 -0.2984 -0.3737
vn -0.4444 0.6846 0.5778
vn -0.3142 0.9440 -0.1010
vn -0.3439 0.9217 0.1794
vn -0.3393 0.9059 -0.2533
vn -0.2056 0.0169 0.9785
vn -0.2681 0.3049 0.9139
vn -0.1759 0.6871 0.7050
vn 0.0022 0.9428 0.3334
vn 0.1108 0.9888 0.0998
vn 0.1976 0.9778 -0.0704
vn 0.0339 0.9620 -0.2709
vn 0.8547 -0.4678 0.2250
vn 0.0990 0.2492 0.9634
vn 0.1078 0.6306 0.7685
vn 0.3151 0.8573 0.4070
vn 0.4677 0.8676 0.1691
vn 0.5737 0.8167 0.0621
vn -0.9741 0.2261 -0.0000
vn -0.8679 0.4968 0.0000
vn -0.8974 0.4409 -0.0168
vn -0.9777 0.1703 -0.1231
vn -0.6166 0.7873 0.0000
vn -0.6174 0.7867 -0.0004
vn -0.2031 0.9792 -0.0000
vn 0.0701 0.9975 -0.0000
vn 0.0854 0.9953 -0.0458
vn -0.1752 0.9842 -0.0238
vn 0.2652 0.9642 0.0000
vn 0.3828 0.9238 -0.0000
vn 0.4009 0.9046 0.1447
vn 0.2714 0.9597 -0.0732
vn -0.8282 0.4086 -0.3835
vn 0.0106 -0.3903 -0.9206
vn -0.5894 0.7527 -0.2934
vn 0.1233 0.9013 -0.4153
vn -0.1509 0.9245 -0.3501
vn 0.2513 0.8376 -0.4850
vn -0.9777 0.1703 0.1231
vn -0.8974 0.4409 0.0168
vn -0.6174 0.7867 0.0004
vn -0.1752 0.9842 0.0238
vn 0.0854 0.9953 0.0458
vn 0.2714 0.9597 0.0732
vn 0.4009 0.9046 -0.1447
vn 0.0106 -0.3903 0.9206
vn -0.8282 0.4086 0.3835
vn -0.5894 0.7527 0.2934
vn -0.1509 0.9245 0.3501
vn 0.1233 0.9013 0.4153
vn 0.2513 0.8376 0.4850
vn -0.8231 0.0925 -0.5603
vn -0.7850 0.3731 -0.4945
vn -0.7894 0.3161 -0.5262
vn -0.7463 0.0511 -0.6636
vn -0.6337 0.6927 -0.3444
vn -0.6340 0.6920 -0.3453
vn -0.3346 0.9368 -0.1020
vn -0.1181 0.9914 0.0565
vn -0.0794 0.9965 0.0279
vn -0.2996 0.9483 -0.1051
vn 0.0447 0.9846 0.1689
vn 0.1463 0.9606 0.2363
vn 0.0821 0.9276 0.3644
vn 0.0920 0.9894 0.1127
vn -0.5199 0.3354 -0.7856
vn 0.5995 -0.2778 -0.7506
vn -0.4392 0.6957 -0.5684
vn 0.1774 0.9511 -0.2529
vn -0.0843 0.9299 -0.3580
vn 0.3310 0.9135 -0.2366
vn -0.8861 0.0230 -0.4630
vn -0.8085 0.3123 -0.4988
vn -0.6345 0.6919 -0.3445
vn -0.3265 0.9428 -0.0664
vn -0.1314 0.9860 0.1026
vn 0.0089 0.9727 0.2320
vn 0.2464 0.9606 0.1285
vn -0.4459 -0.4878 0.7505
vn -0.9554 0.2479 -0.1603
vn -0.7723 0.6288 -0.0901
vn -0.4818 0.8500 0.2128
vn -0.2943 0.8564 0.4243
vn -0.2198 0.8028 0.5542
vn 0.6803 0.1682 -0.7134
vn 0.6147 0.4446 -0.6515
vn 0.6456 0.3874 -0.6581
vn 0.7700 0.1143 -0.6278
vn 0.4494 0.7494 -0.4862
vn 0.4502 0.7488 -0.4865
vn 0.1690 0.9653 -0.1989
vn -0.0194 0.9998 -0.0032
vn 0.0030 0.9992 0.0396
vn 0.1670 0.9725 -0.1626
vn -0.1553 0.9780 0.1390
vn -0.2378 0.9447 0.2258
vn -0.3553 0.9242 0.1397
vn -0.1069 0.9751 0.1943
vn 0.8615 0.3652 -0.3528
vn 0.6457 -0.3739 0.6658
vn 0.6413 0.7213 -0.2618
vn 0.2407 0.9136 0.3277
vn 0.3839 0.9195 0.0839
vn 0.2007 0.8588 0.4715
vn 0.5924 0.1103 -0.7981
vn 0.6214 0.3869 -0.6813
vn 0.4496 0.7487 -0.4871
vn 0.1327 0.9717 -0.1955
vn -0.0631 0.9977 -0.0238
vn -0.2125 0.9727 0.0931
vn -0.1465 0.9289 0.3400
vn -0.6831 -0.4039 -0.6085
vn 0.3080 0.3527 -0.8836
vn 0.2178 0.7117 -0.6678
vn -0.1214 0.9082 -0.4006
vn -0.3588 0.9001 -0.2472
vn -0.4994 0.8430 -0.1999
vn -0.2679 0.3368 -0.9026
vn -0.2338 0.5934 -0.7702
vn -0.2269 0.5416 -0.8095
vn -0.1517 0.2838 -0.9468
vn -0.1589 0.8530 -0.4972
vn -0.1587 0.8524 -0.4981
vn -0.0404 0.9959 -0.0809
vn 0.0362 0.9827 0.1817
vn 0.0844 0.9794 0.1832
vn -0.0097 0.9981 -0.0603
vn 0.0900 0.9271 0.3639
vn 0.1221 0.8735 0.4713
vn -0.0121 0.8500 0.5267
vn 0.1619 0.9231 0.3488
vn 0.1440 0.5075 -0.8495
vn 0.8804 -0.3739 -0.2916
vn 0.1298 0.8202 -0.5571
vn 0.4482 0.8877 0.1055
vn 0.3095 0.9413 -0.1350
vn 0.5497 0.8109 0.2007
vn -0.3880 0.2798 -0.8782
vn -0.2591 0.5410 -0.8001
vn -0.1595 0.8524 -0.4979
vn -0.0553 0.9974 -0.0470
vn -0.0036 0.9780 0.2088
vn 0.0214 0.9207 0.3897
vn 0.2658 0.8547 0.4460
vn -0.8875 -0.4038 0.2220
vn -0.5925 0.4950 -0.6356
vn -0.4336 0.8107 -0.3934
vn -0.3628 0.9299 0.0603
vn -0.3494 0.8742 0.3372
vn -0.3817 0.7951 0.4713
vn 0.7756 0.1511 0.6129
vn 0.7196 0.4285 0.5464
vn 0.7265 0.3717 0.5779
vn 0.6959 0.1026 0.7108
vn 0.5534 0.7367 0.3886
vn 0.5537 0.7361 0.3895
vn 0.2521 0.9591 0.1287
vn 0.0424 0.9982 -0.0431
vn 0.0017 0.9999 -0.0171
vn 0.2161 0.9677 0.1296
vn -0.1117 0.9798 -0.1658
vn -0.2066 0.9486 -0.2398
vn -0.1319 0.9221 -0.3637
vn -0.1628 0.9802 -0.1129
vn 0.4403 0.3668 0.8195
vn -0.6224 -0.3322 0.7087
vn 0.3453 0.7220 0.5996
vn -0.2681 0.9314 0.2462
vn -0.0128 0.9297 0.3680
vn -0.4169 0.8820 0.2199
vn 0.8500 0.0878 0.5195
vn 0.7476 0.3696 0.5518
vn 0.5542 0.7360 0.3888
vn 0.2458 0.9649 0.0927
vn 0.0591 0.9943 -0.0883
vn -0.0711 0.9714 -0.2266
vn -0.3131 0.9395 -0.1388
vn 0.5304 -0.4430 -0.7228
vn 0.9205 0.3207 0.2232
vn 0.7127 0.6867 0.1434
vn 0.4255 0.8876 -0.1763
vn 0.2520 0.8814 -0.3995
vn 0.1905 0.8236 -0.5343
vn 0.8084 0.4885 0.3285
vn 0.6524 0.7181 0.2422
vn 0.6844 0.6739 0.2782
vn 0.7741 0.4439 0.4515
vn 0.3638 0.9263 0.0978
vn 0.3644 0.9260 0.0986
vn -0.0455 0.9948 -0.0909
vn -0.2911 0.9362 -0.1970
vn -0.3228 0.9327 -0.1607
vn -0.0811 0.9934 -0.0807
vn -0.4557 0.8498 -0.2649
vn -0.5503 0.7784 -0.3023
vn -0.5027 0.7456 -0.4375
vn -0.4900 0.8485 -0.1998
vn 0.4808 0.6473 0.5915
vn -0.2962 -0.3175 0.9008
vn 0.2277 0.9045 0.3606
vn -0.4857 0.8559 0.1775
vn -0.2222 0.9504 0.2175
vn -0.6126 0.7637 0.2036
vn 0.8747 0.4280 0.2274
vn 0.6982 0.6718 0.2476
vn 0.3648 0.9259 0.0978
vn -0.0616 0.9904 -0.1239
vn -0.2853 0.9268 -0.2441
vn -0.4302 0.8391 -0.3330
vn -0.6210 0.7642 -0.1741
vn 0.4567 -0.4362 -0.7753
vn 0.7945 0.5979 -0.1068
vn 0.4677 0.8667 -0.1736
vn 0.0641 0.9053 -0.4199
vn -0.1461 0.8024 -0.5787
vn -0.2160 0.7012 -0.6795
vn -0.1691 0.4667 0.8681
vn -0.1507 0.7011 0.6970
vn -0.1724 0.6539 0.7367
vn -0.2910 0.4081 0.8653
vn -0.1071 0.9176 0.3828
vn -0.1076 0.9172 0.3836
vn -0.0353 0.9976 -0.0602
vn 0.0122 0.9457 -0.3249
vn -0.0303 0.9376 -0.3465
vn -0.0538 0.9943 -0.0921
vn 0.0460 0.8638 -0.5018
vn 0.0665 0.7948 -0.6032
vn 0.2121 0.7781 -0.5912
vn -0.0249 0.8545 -0.5188
vn -0.5215 0.5885 0.6178
vn -0.9048 -0.4210 -0.0635
vn -0.3913 0.8641 0.3167
vn -0.3876 0.8205 -0.4202
vn -0.3710 0.9157 -0.1545
vn -0.4340 0.7232 -0.5372
vn -0.0486 0.4192 0.9066
vn -0.1393 0.6554 0.7423
vn -0.1068 0.9172 0.3838
vn -0.0070 0.9964 -0.0841
vn 0.0600 0.9417 -0.3311
vn 0.1192 0.8611 -0.4943
vn -0.0729 0.7651 -0.6397
vn 0.9085 -0.3383 0.2453
vn 0.2339 0.6230 0.7464
vn 0.1866 0.8904 0.4151
vn 0.3186 0.9472 -0.0370
vn 0.4304 0.8578 -0.2809
vn 0.5213 0.7668 -0.3745
# 264 vertex normals

vt 0.5547 0.9648 0.0000
vt 0.5625 0.5547 0.0000
vt 0.4375 0.5625 0.0000
vt 0.4766 0.9648 0.0000
vt 0.5664 0.3672 0.0000
vt 0.4414 0.3633 0.0000
vt 0.5742 0.1992 0.0000
vt 0.5820 0.0469 0.0000
vt 0.4531 0.0469 0.0000
vt 0.4414 0.1836 0.0000
vt 0.9258 0.5000 0.0000
vt 0.9141 0.0586 0.0000
vt 0.8164 0.2266 0.0000
vt 0.8008 0.5078 0.0000
vt 0.3164 0.5469 0.0000
vt 0.3789 0.7695 0.0000
vt 0.3164 0.3594 0.0000
vt 0.3164 0.0469 0.0000
vt 0.3125 0.1914 0.0000
vt 0.6719 0.4922 0.0000
vt 0.9219 0.7227 0.0000
vt 0.7930 0.7227 0.0000
vt 0.6563 0.7148 0.0000
# 23 texture coords

g Plane013
s 2
f 1/1/1 2/2/2 3/3/3 4/4/4 
f 2/2/2 5/5/5 6/6/6 3/3/3 
f 7/7/7 8/8/8 9/9/9 10/10/10 
f 11/11/11 12/12/12 13/13/13 14/14/14 
f 4/4/4 3/3/3 15/15/15 16/16/16 
f 15/15/15 3/3/3 6/6/6 17/17/17 
f 10/10/10 9/9/9 18/18/18 19/19/19 
f 20/20/20 14/14/14 13/13/13 
f 8/21/8 11/11/11 14/14/14 9/22/9 
f 9/22/9 14/14/14 20/20/20 18/23/18 
f 7/7/7 10/10/10 6/6/6 5/5/5 
f 6/6/6 10/10/10 19/19/19 17/17/17 
f 1/1/1 21/4/21 22/3/22 2/2/2 
f 2/2/2 22/3/22 23/6/23 5/5/5 
f 7/7/7 24/10/24 25/9/25 8/8/8 
f 11/11/11 26/14/26 27/13/27 12/12/12 
f 21/4/21 28/16/28 29/15/29 22/3/22 
f 29/15/29 30/17/30 23/6/23 22/3/22 
f 24/10/24 31/19/31 32/18/32 25/9/25 
f 33/20/33 27/13/27 26/14/26 
f 8/21/8 25/22/25 26/14/26 11/11/11 
f 25/22/25 32/23/32 33/20/33 26/14/26 
f 7/7/7 5/5/5 23/6/23 24/10/24 
f 23/6/23 30/17/30 31/19/31 24/10/24 
f 34/1/34 35/2/35 36/3/36 37/4/37 
f 35/2/35 38/5/38 39/6/39 36/3/36 
f 40/7/40 41/8/41 42/9/42 43/10/43 
f 44/11/44 45/12/45 46/13/46 47/14/47 
f 37/4/37 36/3/36 48/15/48 49/16/49 
f 48/15/48 36/3/36 39/6/39 50/17/50 
f 43/10/43 42/9/42 51/18/51 52/19/52 
f 53/20/53 47/14/47 46/13/46 
f 41/21/41 44/11/44 47/14/47 42/22/42 
f 42/22/42 47/14/47 53/20/53 51/23/51 
f 40/7/40 43/10/43 39/6/39 38/5/38 
f 39/6/39 43/10/43 52/19/52 50/17/50 
f 34/1/34 54/4/54 55/3/55 35/2/35 
f 35/2/35 55/3/55 56/6/56 38/5/38 
f 40/7/40 57/10/57 58/9/58 41/8/41 
f 44/11/44 59/14/59 60/13/60 45/12/45 
f 54/4/54 61/16/61 62/15/62 55/3/55 
f 62/15/62 63/17/63 56/6/56 55/3/55 
f 57/10/57 64/19/64 65/18/65 58/9/58 
f 66/20/66 60/13/60 59/14/59 
f 41/21/41 58/22/58 59/14/59 44/11/44 
f 58/22/58 65/23/65 66/20/66 59/14/59 
f 40/7/40 38/5/38 56/6/56 57/10/57 
f 56/6/56 63/17/63 64/19/64 57/10/57 
f 34/1/67 67/2/68 68/3/69 69/4/70 
f 67/2/68 70/5/71 71/6/72 68/3/69 
f 72/7/73 73/8/74 74/9/75 75/10/76 
f 76/11/77 77/12/78 78/13/79 79/14/80 
f 69/4/70 68/3/69 80/15/81 81/16/82 
f 80/15/81 68/3/69 71/6/72 82/17/83 
f 75/10/76 74/9/75 83/18/84 84/19/85 
f 85/20/86 79/14/80 78/13/79 
f 73/21/74 76/11/77 79/14/80 74/22/75 
f 74/22/75 79/14/80 85/20/86 83/23/84 
f 72/7/73 75/10/76 71/6/72 70/5/71 
f 71/6/72 75/10/76 84/19/85 82/17/83 
f 34/1/67 86/4/87 87/3/88 67/2/68 
f 67/2/68 87/3/88 88/6/89 70/5/71 
f 72/7/73 89/10/90 90/9/91 73/8/74 
f 76/11/77 91/14/92 92/13/93 77/12/78 
f 86/4/87 93/16/94 94/15/95 87/3/88 
f 94/15/95 95/17/96 88/6/89 87/3/88 
f 89/10/90 96/19/97 97/18/98 90/9/91 
f 98/20/99 92/13/93 91/14/92 
f 73/21/74 90/22/91 91/14/92 76/11/77 
f 90/22/91 97/23/98 98/20/99 91/14/92 
f 72/7/73 70/5/71 88/6/89 89/10/90 
f 88/6/89 95/17/96 96/19/97 89/10/90 
f 99/1/100 100/2/101 101/3/102 102/4/103 
f 100/2/101 103/5/104 104/6/105 101/3/102 
f 105/7/106 106/8/107 107/9/108 108/10/109 
f 109/11/110 110/12/111 111/13/112 112/14/113 
f 102/4/103 101/3/102 113/15/114 114/16/115 
f 113/15/114 101/3/102 104/6/105 115/17/116 
f 108/10/109 107/9/108 116/18/117 117/19/118 
f 118/20/119 112/14/113 111/13/112 
f 106/21/107 109/11/110 112/14/113 107/22/108 
f 107/22/108 112/14/113 118/20/119 116/23/117 
f 105/7/106 108/10/109 104/6/105 103/5/104 
f 104/6/105 108/10/109 117/19/118 115/17/116 
f 99/1/100 119/4/120 120/3/121 100/2/101 
f 100/2/101 120/3/121 121/6/122 103/5/104 
f 105/7/106 122/10/123 123/9/124 106/8/107 
f 109/11/110 124/14/125 125/13/126 110/12/111 
f 119/4/120 126/16/127 127/15/128 120/3/121 
f 127/15/128 128/17/129 121/6/122 120/3/121 
f 122/10/123 129/19/130 130/18/131 123/9/124 
f 131/20/132 125/13/126 124/14/125 
f 106/21/107 123/22/124 124/14/125 109/11/110 
f 123/22/124 130/23/131 131/20/132 124/14/125 
f 105/7/106 103/5/104 121/6/122 122/10/123 
f 121/6/122 128/17/129 129/19/130 122/10/123 
f 132/1/133 133/2/134 134/3/135 135/4/136 
f 133/2/134 136/5/137 137/6/138 134/3/135 
f 138/7/139 139/8/140 140/9/141 141/10/142 
f 142/11/143 143/12/144 144/13/145 145/14/146 
f 135/4/136 134/3/135 146/15/147 147/16/148 
f 146/15/147 134/3/135 137/6/138 148/17/149 
f 141/10/142 140/9/141 149/18/150 150/19/151 
f 151/20/152 145/14/146 144/13/145 
f 139/21/140 142/11/143 145/14/146 140/22/141 
f 140/22/141 145/14/146 151/20/152 149/23/150 
f 138/7/139 141/10/142 137/6/138 136/5/137 
f 137/6/138 141/10/142 150/19/151 148/17/149 
f 132/1/133 152/4/153 153/3/154 133/2/134 
f 133/2/134 153/3/154 154/6/155 136/5/137 
f 138/7/139 155/10/156 156/9/157 139/8/140 
f 142/11/143 157/14/158 158/13/159 143/12/144 
f 152/4/153 159/16/160 160/15/161 153/3/154 
f 160/15/161 161/17/162 154/6/155 153/3/154 
f 155/10/156 162/19/163 163/18/164 156/9/157 
f 164/20/165 158/13/159 157/14/158 
f 139/21/140 156/22/157 157/14/158 142/11/143 
f 156/22/157 163/23/164 164/20/165 157/14/158 
f 138/7/139 136/5/137 154/6/155 155/10/156 
f 154/6/155 161/17/162 162/19/163 155/10/156 
f 165/1/166 166/2/167 167/3/168 168/4/169 
f 166/2/167 169/5/170 170/6/171 167/3/168 
f 171/7/172 172/8/173 173/9/174 174/10/175 
f 175/11/176 176/12/177 177/13/178 178/14/179 
f 168/4/169 167/3/168 179/15/180 180/16/181 
f 179/15/180 167/3/168 170/6/171 181/17/182 
f 174/10/175 173/9/174 182/18/183 183/19/184 
f 184/20/185 178/14/179 177/13/178 
f 172/21/173 175/11/176 178/14/179 173/22/174 
f 173/22/174 178/14/179 184/20/185 182/23/183 
f 171/7/172 174/10/175 170/6/171 169/5/170 
f 170/6/171 174/10/175 183/19/184 181/17/182 
f 165/1/166 185/4/186 186/3/187 166/2/167 
f 166/2/167 186/3/187 187/6/188 169/5/170 
f 171/7/172 188/10/189 189/9/190 172/8/173 
f 175/11/176 190/14/191 191/13/192 176/12/177 
f 185/4/186 192/16/193 193/15/194 186/3/187 
f 193/15/194 194/17/195 187/6/188 186/3/187 
f 188/10/189 195/19/196 196/18/197 189/9/190 
f 197/20/198 191/13/192 190/14/191 
f 172/21/173 189/22/190 190/14/191 175/11/176 
f 189/22/190 196/23/197 197/20/198 190/14/191 
f 171/7/172 169/5/170 187/6/188 188/10/189 
f 187/6/188 194/17/195 195/19/196 188/10/189 
f 198/1/199 199/2/200 200/3/201 201/4/202 
f 199/2/200 202/5/203 203/6/204 200/3/201 
f 204/7/205 205/8/206 206/9/207 207/10/208 
f 208/11/209 209/12/210 210/13/211 211/14/212 
f 201/4/202 200/3/201 212/15/213 213/16/214 
f 212/15/213 200/3/201 203/6/204 214/17/215 
f 207/10/208 206/9/207 215/18/216 216/19/217 
f 217/20/218 211/14/212 210/13/211 
f 205/21/206 208/11/209 211/14/212 206/22/207 
f 206/22/207 211/14/212 217/20/218 215/23/216 
f 204/7/205 207/10/208 203/6/204 202/5/203 
f 203/6/204 207/10/208 216/19/217 214/17/215 
f 198/1/199 218/4/219 219/3/220 199/2/200 
f 199/2/200 219/3/220 220/6/221 202/5/203 
f 204/7/205 221/10/222 222/9/223 205/8/206 
f 208/11/209 223/14/224 224/13/225 209/12/210 
f 218/4/219 225/16/226 226/15/227 219/3/220 
f 226/15/227 227/17/228 220/6/221 219/3/220 
f 221/10/222 228/19/229 229/18/230 222/9/223 
f 230/20/231 224/13/225 223/14/224 
f 205/21/206 222/22/223 223/14/224 208/11/209 
f 222/22/223 229/23/230 230/20/231 223/14/224 
f 204/7/205 202/5/203 220/6/221 221/10/222 
f 220/6/221 227/17/228 228/19/229 221/10/222 
f 1/1/232 231/2/233 232/3/234 233/4/235 
f 231/2/233 234/5/236 235/6/237 232/3/234 
f 236/7/238 237/8/239 238/9/240 239/10/241 
f 240/11/242 241/12/243 242/13/244 243/14/245 
f 233/4/235 232/3/234 244/15/246 245/16/247 
f 244/15/246 232/3/234 235/6/237 246/17/248 
f 239/10/241 238/9/240 247/18/249 248/19/250 
f 249/20/251 243/14/245 242/13/244 
f 237/21/239 240/11/242 243/14/245 238/22/240 
f 238/22/240 243/14/245 249/20/251 247/23/249 
f 236/7/238 239/10/241 235/6/237 234/5/236 
f 235/6/237 239/10/241 248/19/250 246/17/248 
f 1/1/232 250/4/252 251/3/253 231/2/233 
f 231/2/233 251/3/253 252/6/254 234/5/236 
f 236/7/238 253/10/255 254/9/256 237/8/239 
f 240/11/242 255/14/257 256/13/258 241/12/243 
f 250/4/252 257/16/259 258/15/260 251/3/253 
f 258/15/260 259/17/261 252/6/254 251/3/253 
f 253/10/255 260/19/262 261/18/263 254/9/256 
f 262/20/264 256/13/258 255/14/257 
f 237/21/239 254/22/256 255/14/257 240/11/242 
f 254/22/256 261/23/263 262/20/264 255/14/257 
f 236/7/238 234/5/236 252/6/254 253/10/255 
f 252/6/254 259/17/261 260/19/262 253/10/255 
# 176 polygons - 16 triangles

